<svg xmlns="http://www.w3.org/2000/svg" width="258.541" height="58.3" viewBox="0 0 258.541 58.3">
  <g id="modara-logo" transform="translate(0 -0.1)">
    <path id="Path_1" data-name="Path 1" d="M55.2,57.7H46.1a1.63,1.63,0,0,1-1.5-1.6V30.4c0-4.8-1.1-6.2-4.6-6.2a14.042,14.042,0,0,0-5.8,1.4c.1,1.5.2,3.2.2,4.9V46.7a1.63,1.63,0,0,1-1.5,1.6H23.8a1.721,1.721,0,0,1-1.6-1.6V30.4c0-4.8-.9-6.2-4.4-6.2-1.4,0-3.4.8-5.7,2V56.1a1.63,1.63,0,0,1-1.5,1.6h-9A1.721,1.721,0,0,1,0,56.1v-40a1.538,1.538,0,0,1,1.5-1.5h8.6a1.538,1.538,0,0,1,1.5,1.5v1.7c3.2-2.1,6.8-3.8,11.1-3.8,4,0,6.8,1.1,8.9,3.7C36,15.2,39,14,43.9,14c9.9,0,12.9,6.6,12.9,16.5V56.1A1.721,1.721,0,0,1,55.2,57.7Z" fill="#fff"/>
    <path id="Path_2" data-name="Path 2" d="M80.8,58.3c-12.2,0-18.9-7.6-18.9-19.5V33.5c0-12,6.7-19.5,18.9-19.5s18.8,7.6,18.8,19.5v5.3C99.6,50.7,93,58.3,80.8,58.3Zm6.7-24.8c0-6.1-2.3-9.2-6.7-9.2S74,27.4,74,33.5v5.3c0,6.1,2.4,9.2,6.8,9.2s6.7-3.2,6.7-9.2Z" fill="#fff"/>
    <path id="Path_3" data-name="Path 3" d="M138.3,56.4a67.811,67.811,0,0,1-16,2c-12.2,0-18.9-7.1-18.9-19.2V33.3c0-11.8,6.2-19.2,18.9-19.2a52.769,52.769,0,0,1,6.2.5V1.6A1.538,1.538,0,0,1,130,.1h9.1a1.63,1.63,0,0,1,1.6,1.5V54.3C140.6,55.4,140.3,55.9,138.3,56.4Zm-9.8-32c-1.8-.2-4.4-.4-6.2-.4-5.3,0-6.7,3.9-6.7,9.2v5.9c0,5.3,1.4,9.2,6.7,9.2a33.6,33.6,0,0,0,6.2-.5Z" fill="#fff"/>
    <path id="Path_4" data-name="Path 4" d="M181.9,39.9h-24v.2c0,4.3,1.8,8.2,7.7,8.2,4.7,0,11.4-.4,14.4-.7h.2c.8,0,1.4.4,1.4,1.2v5.7c0,1.2-.3,1.7-1.6,2a57.621,57.621,0,0,1-15.4,1.8c-9.1,0-18.9-4.8-18.9-19.3V33.7c0-12.1,7.1-19.8,19-19.8,12.3,0,18.6,8.4,18.6,19.8v4.4A1.371,1.371,0,0,1,181.9,39.9Zm-10.3-7.8c0-5.6-2.6-8.3-6.8-8.3-4.1,0-6.9,2.9-6.9,8.3v.3h13.7Z" fill="#fff"/>
    <path id="Path_5" data-name="Path 5" d="M210.9,24.1h-.6a20.278,20.278,0,0,0-9.7,2.6V56.1a1.63,1.63,0,0,1-1.5,1.6H190a1.721,1.721,0,0,1-1.6-1.6v-40a1.538,1.538,0,0,1,1.5-1.5h8.9a1.538,1.538,0,0,1,1.5,1.5v1.5A16.262,16.262,0,0,1,210.5,14a1.538,1.538,0,0,1,1.5,1.5v7.1C212,23.3,211.5,24.1,210.9,24.1Z" fill="#fff"/>
    <path id="Path_6" data-name="Path 6" d="M245.5,57.7h-8.4a1.538,1.538,0,0,1-1.5-1.5V55a16.509,16.509,0,0,1-10.5,3.4c-6.5,0-12.9-3.2-12.9-12.9v-.7c0-8.8,5.6-12.7,18.5-12.7h4.1V29.4c0-4.3-2.1-5.2-5.6-5.2-4.8,0-10.1.3-12.5.5h-.4a1.263,1.263,0,0,1-1.4-1.4V17.2a1.781,1.781,0,0,1,1.4-1.7,58.682,58.682,0,0,1,13-1.6c10.8,0,17.6,4.4,17.6,15.3V56A1.461,1.461,0,0,1,245.5,57.7ZM235.1,39.2h-4.3c-5.3,0-6.6,1.8-6.6,5.5v.7c0,3.2,1.6,3.8,4.7,3.8a13.951,13.951,0,0,0,6.2-1.7V39.2Z" fill="#fff"/>
    <g id="Group_1" data-name="Group 1">
      <path id="Path_7" data-name="Path 7" d="M250.4,8.3h-1.9v6.5a.215.215,0,0,1-.2.2h-1.1a.215.215,0,0,1-.2-.2V8.3h-1.9a.215.215,0,0,1-.2-.2V7.2a.215.215,0,0,1,.2-.2h5.3a.215.215,0,0,1,.2.2V8C250.6,8.2,250.6,8.3,250.4,8.3Z" fill="#fff"/>
      <path id="Path_8" data-name="Path 8" d="M258.4,15h-1.1a.215.215,0,0,1-.2-.2V9.7l-.1.1-1,2.1c-.1.1-.2.2-.3.2h-1.1c-.1,0-.3-.1-.3-.2l-1-2.1a.1.1,0,0,0-.1-.1v5.1a.215.215,0,0,1-.2.2h-1.1a.215.215,0,0,1-.2-.2V7.4a.43.43,0,0,1,.4-.4h.9c.2,0,.3.1.4.3l1.6,3.3a.31.31,0,0,1,.1.2.349.349,0,0,0,.1-.2l1.6-3.3c.1-.2.2-.3.4-.3h.9a.43.43,0,0,1,.4.4v7.4C258.6,14.9,258.5,15,258.4,15Z" fill="#fff"/>
    </g>
  </g>
</svg>
